<svg width="6" height="6" viewBox="0 0 6 6" fill="none" xmlns="http://www.w3.org/2000/svg">
<path d="M2.682 5.204C2.354 5.204 2.046 5.142 1.758 5.018C1.47 4.898 1.216 4.73 0.996 4.514C0.78 4.294 0.61 4.04 0.486 3.752C0.366 3.464 0.306 3.156 0.306 2.828C0.306 2.496 0.366 2.188 0.486 1.904C0.61 1.616 0.78 1.364 0.996 1.148C1.216 0.928 1.47 0.758 1.758 0.638C2.046 0.514 2.354 0.452 2.682 0.452C3.014 0.452 3.322 0.514 3.606 0.638C3.894 0.758 4.146 0.928 4.362 1.148C4.582 1.364 4.752 1.616 4.872 1.904C4.996 2.188 5.058 2.496 5.058 2.828C5.058 3.156 4.996 3.464 4.872 3.752C4.752 4.04 4.582 4.294 4.362 4.514C4.146 4.73 3.894 4.898 3.606 5.018C3.322 5.142 3.014 5.204 2.682 5.204Z" fill="#666666"/>
</svg>
